<?xml version="1.0" encoding="UTF-8" ?>
<!DOCTYPE svg PUBLIC "-//W3C//DTD SVG 1.1//EN" "http://www.w3.org/Graphics/SVG/1.1/DTD/svg11.dtd">
<svg width="363pt" height="106pt" viewBox="0 0 363 106" version="1.1" xmlns="http://www.w3.org/2000/svg">
<g id="#ffffff">
<path fill="#ffffff" opacity="1.00" d=" M 20.98 30.97 C 34.78 30.94 48.59 30.96 62.39 30.96 C 62.47 33.72 62.53 36.49 62.61 39.25 C 52.78 39.44 42.95 39.14 33.13 39.45 C 33.10 42.51 33.09 45.57 33.13 48.64 C 42.43 48.98 51.74 48.74 61.05 48.82 C 61.08 51.34 61.13 53.86 61.20 56.38 C 51.84 56.77 42.48 56.29 33.12 56.65 C 33.09 60.03 33.08 63.40 33.14 66.78 C 43.08 67.04 53.02 66.82 62.97 66.92 C 62.97 69.65 62.97 72.38 62.96 75.12 C 48.97 75.18 34.97 75.24 20.97 75.07 C 20.97 60.37 20.95 45.67 20.98 30.97 Z" />
<path fill="#ffffff" opacity="1.00" d=" M 72.33 31.06 C 78.16 30.87 83.99 30.98 89.81 30.96 C 94.55 41.33 98.43 52.07 103.19 62.43 C 107.86 52.06 112.06 41.49 116.41 30.98 C 122.28 30.93 128.14 30.96 134.01 30.96 C 134.09 45.68 134.05 60.41 134.04 75.13 C 130.26 75.17 126.49 75.15 122.71 75.10 C 122.45 63.59 122.79 52.07 122.33 40.57 C 116.99 51.87 113.28 63.88 108.01 75.21 C 104.71 75.15 101.42 75.14 98.13 75.11 C 93.38 63.64 88.96 52.05 84.20 40.59 C 83.95 52.10 84.12 63.61 84.06 75.13 C 80.13 75.18 76.20 75.16 72.27 75.07 C 72.30 60.40 72.18 45.73 72.33 31.06 Z" />
<path fill="#ffffff" opacity="1.00" d=" M 145.80 30.99 C 149.54 30.98 153.29 30.98 157.03 30.99 C 157.15 45.69 157.07 60.39 157.08 75.08 C 153.27 75.09 149.47 75.08 145.66 75.03 C 145.74 60.35 145.47 45.66 145.80 30.99 Z" />
<path fill="#ffffff" opacity="1.00" d=" M 168.92 30.97 C 173.50 30.96 178.09 30.94 182.67 30.97 C 190.38 41.15 197.94 51.45 205.93 61.40 C 206.06 51.26 205.88 41.12 206.04 30.98 C 209.94 30.95 213.85 30.95 217.75 30.96 C 218.19 45.67 217.84 60.40 217.95 75.11 C 213.44 75.18 208.94 75.23 204.44 75.02 C 196.58 64.78 188.75 54.47 180.36 44.65 C 179.80 54.80 180.27 64.98 180.08 75.14 C 176.35 75.17 172.62 75.15 168.89 75.10 C 168.88 60.39 168.83 45.68 168.92 30.97 Z" />
<path fill="#ffffff" opacity="1.00" d=" M 226.98 30.98 C 240.74 30.96 254.50 30.97 268.26 30.97 C 268.65 45.68 268.35 60.40 268.43 75.11 C 254.59 75.14 240.76 75.20 226.93 75.07 C 226.93 72.36 226.93 69.65 226.95 66.94 C 236.70 66.92 246.46 66.89 256.22 66.95 C 256.81 63.46 256.81 59.88 256.12 56.39 C 247.01 56.58 237.90 56.57 228.80 56.35 C 228.81 53.85 228.84 51.35 228.86 48.85 C 237.99 48.86 247.11 48.80 256.24 48.88 C 256.84 45.68 256.81 42.39 256.11 39.20 C 246.39 39.35 236.67 39.36 226.96 39.16 C 226.96 36.43 226.97 33.71 226.98 30.98 Z" />
<path fill="#ffffff" opacity="1.00" d=" M 280.15 30.98 C 286.06 30.94 291.96 30.98 297.87 30.94 C 302.59 41.29 306.47 52.01 311.18 62.37 C 315.92 52.07 320.13 41.52 324.33 30.99 C 330.23 30.93 336.14 30.96 342.05 30.97 C 342.19 45.69 342.10 60.41 342.10 75.12 C 338.27 75.17 334.45 75.15 330.63 75.08 C 330.61 63.54 330.64 52.01 330.34 40.48 C 325.04 51.81 321.17 63.76 316.07 75.18 C 312.77 75.15 309.48 75.13 306.19 75.09 C 301.38 63.63 296.96 52.00 292.17 40.52 C 291.89 52.05 292.12 63.59 292.03 75.12 C 288.06 75.17 284.09 75.14 280.12 75.06 C 280.01 60.37 279.96 45.67 280.15 30.98 Z" />
</g>
</svg>
